<svg width="292" height="300" viewBox="0 0 292 300" fill="none" xmlns="http://www.w3.org/2000/svg">
<path d="M208.333 104.167C208.333 161.696 161.696 208.333 104.167 208.333C46.637 208.333 0 161.696 0 104.167C0 46.637 46.637 0 104.167 0C161.696 0 208.333 46.637 208.333 104.167Z" fill="#FFAA00"/>
<path fill-rule="evenodd" clip-rule="evenodd" d="M71.0373 166.507L183.894 166.714L183.821 253.353L70.9488 253.062L71.0373 166.507ZM105.765 183.87L123.075 183.951C123.163 188.333 122.622 209.549 123.489 211.752C124.841 215.189 130.295 214.301 134.761 214.298C139.515 214.294 144.313 214.238 149.113 214.358L149.091 235.979L105.722 235.948L105.765 183.87ZM131.999 191.842C133.802 193.42 142.79 203.66 143.578 205.629L131.845 205.535L131.999 191.842ZM97.2331 241.622C98.3935 245.89 105.454 244.689 110.655 244.678L143.581 244.68C148.034 244.686 155.71 245.837 157.29 242.42C158.233 240.378 158.076 214.416 157.858 210.42C157.696 207.439 156.327 206.496 154.999 204.916L136.218 183.136C126.79 172.946 133.474 175.247 111.243 175.184C106.74 175.171 99.2878 174.072 97.5908 177.393C96.89 178.765 96.3671 238.438 97.2331 241.622ZM223.24 179.602L240.178 179.612C240.381 198.061 242.077 193.223 234.42 199.587C231.055 202.383 229.664 200.202 227.091 198.092C223.956 195.522 222.917 196.376 222.924 191.093C222.928 187.817 222.587 182.6 223.24 179.602ZM219.027 170.757C217.783 166.746 218.628 132.312 218.615 125.206C218.588 110.083 218.439 94.8303 218.647 79.6852L244.703 79.8535L244.41 170.772L219.027 170.757ZM106.201 114.385L209.644 114.363C210.592 118.88 209.921 156.997 209.91 166.951C209.908 169.209 209.652 173.752 210.004 175.753C210.581 179.028 212.825 178.288 214.263 180.474C214.259 183.626 213.892 196.248 214.563 198.316C215.247 200.424 222.282 205.413 224.463 207.183C228.957 210.831 233.667 211.299 238.271 207.552C241.188 205.179 245.868 201.043 248.798 199.308L248.986 179.886C252.128 178.115 253.257 178.687 253.415 174.031C253.76 163.863 252.749 150.079 253.53 140.531L262.021 140.57L262.072 218.331L192.657 218.577C191.601 208.207 192.665 178.153 192.537 163.999C192.464 156.029 187.354 157.804 180.035 157.782C155.302 157.706 130.476 158.053 105.758 157.756L105.751 140.502L194.734 140.479C200.184 140.491 202.444 141.37 205.213 138.192C206.111 132.658 203.952 131.783 198.869 131.77C168.651 131.694 135.214 132.428 105.869 131.727C105.668 128.093 105.258 117.341 106.201 114.385ZM209.758 105.541C204.043 106.176 195.46 105.701 189.442 105.69C182.584 105.678 175.722 105.677 168.863 105.687C161.085 105.698 157.06 106.221 152.638 101.448C148.879 97.3902 147.984 91.0245 151.158 85.7408C153.359 82.0768 158.778 78.3332 165.722 80.1615C172.119 81.8457 172.662 85.923 176.474 89.9548C186.67 100.737 194.357 95.2165 209.887 97.1828L209.758 105.541ZM96.9416 110.507C96.8326 117.849 97.4705 154.206 96.7683 157.759C89.3023 158.361 79.5495 157.876 71.8491 157.849C67.6435 157.834 63.416 157.197 62.4996 161.15L62.3098 248.678C62.325 261.563 60.4805 262.09 73.6133 262.084C89.5998 262.077 107.264 261.373 123.091 262.163L123.081 270.578C114.422 271.074 88.6668 269.046 86.6435 272.813C85.027 280.52 91.1351 279.389 97.1318 279.385L164.75 279.304C169.918 278.493 169.954 271.755 165.063 270.806C157.39 269.317 140.96 271.408 131.819 270.524L131.869 262.214C146.035 260.998 165.309 262.091 180.035 262.084C192.555 262.077 192.52 263.255 192.522 250.442C192.523 245.064 191.866 231.768 192.764 227.331C203.957 226.59 238.975 227.272 252.942 227.249C270.14 227.22 270.739 230.943 270.712 213.988C270.696 203.994 270.699 193.996 270.708 184.002C270.718 172.041 271.493 101.099 270.693 92.829C270.182 87.5585 264.349 87.0222 262.558 90.6865C261.501 92.8495 262.004 101.52 262.011 104.627C261.739 105.618 251.998 110.238 261.894 114.622L261.825 131.776L253.489 131.718C253.036 122.979 255.171 75.75 252.219 72.4342C249.596 69.4885 228.388 70.9858 222.956 70.9747C206.063 70.94 210.334 71.7315 209.866 88.066C205.728 88.693 198.596 88.3002 194.135 88.2965C181.404 88.286 182.57 80.8328 175.266 75.2867C165.043 67.5242 150.242 70.5598 143.515 81.623C137.996 90.6985 140.763 97.8797 144.456 105.685L105.774 105.424C105.408 99.9037 107.857 85.023 99.5638 88.7913C96.2613 90.2922 97.001 94.6325 97.0123 98.7472C97.023 102.681 96.9998 106.576 96.9416 110.507Z" fill="black"/>
</svg>
