<svg width="40" height="39" viewBox="0 0 40 39" xmlns="http://www.w3.org/2000/svg">
<path fill-rule="evenodd" clip-rule="evenodd" d="M29.2985 11.5245C29.689 11.134 29.689 10.5008 29.2985 10.1103C28.908 9.71975 28.2748 9.71975 27.8843 10.1103L19.505 18.4895L11.6208 10.6052C11.2302 10.2147 10.5971 10.2147 10.2065 10.6052C9.81602 10.9957 9.81602 11.6289 10.2065 12.0194L18.0908 19.9037L10.2066 27.7879C9.8161 28.1785 9.8161 28.8116 10.2066 29.2022C10.5971 29.5927 11.2303 29.5927 11.6208 29.2022L19.505 21.3179L27.8842 29.6971C28.2747 30.0876 28.9079 30.0876 29.2984 29.6971C29.689 29.3066 29.689 28.6734 29.2984 28.2829L20.9193 19.9037L29.2985 11.5245Z" fill="currentColor"/>
</svg>
