<svg width="32" height="33" viewBox="0 0 32 33" xmlns="http://www.w3.org/2000/svg">
<path d="M20.9455 1.78317H10.2728C5.36191 1.78317 1.40381 5.8699 1.40381 10.9163V21.8843C1.40381 26.931 5.36191 31.0807 10.2728 31.0807H20.9455C25.8565 31.0807 29.9053 26.931 29.9053 21.8843V10.9163C29.9053 5.8699 25.8565 1.78317 20.9455 1.78317ZM27.2199 21.8843C27.2199 25.4118 24.3782 28.3085 20.9455 28.3085H10.2728C6.8399 28.3085 4.02814 25.4118 4.02814 21.8843V10.9163C4.02814 7.38896 6.8399 4.49241 10.2728 4.49241H20.9455C24.3782 4.49241 27.2199 7.38896 27.2199 10.9163V21.8843Z" fill="currentColor"/>
<path d="M15.6092 9.08844C11.6799 9.08844 8.49414 12.3623 8.49414 16.4006C8.49414 20.4383 11.6799 23.712 15.6092 23.712C19.5385 23.712 22.7242 20.4383 22.7242 16.4006C22.7242 12.3623 19.5385 9.08844 15.6092 9.08844ZM15.6092 20.9703C13.1579 20.9703 11.1625 18.9194 11.1625 16.4006C11.1625 13.8793 13.1579 11.8305 15.6092 11.8305C18.0603 11.8305 20.056 13.8794 20.056 16.4006C20.056 18.9194 18.0603 20.9703 15.6092 20.9703Z" fill="currentColor"/>
<path d="M23.2579 7.56567C22.7342 7.56567 22.3096 8.00193 22.3096 8.53993C22.3096 9.078 22.7342 9.51444 23.2579 9.51444C23.7811 9.51444 24.2058 9.078 24.2058 8.53993C24.2058 8.00193 23.7811 7.56567 23.2579 7.56567Z" fill="currentColor"/>
</svg>
