<svg width="24" height="25" viewBox="0 0 24 25" xmlns="http://www.w3.org/2000/svg">
<path d="M7.5 7.61622C7.63969 7.75674 7.71809 7.94683 7.71809 8.14497C7.71809 8.34311 7.63969 8.5332 7.5 8.67372L4.08 12.1537L21.75 12.1537C21.9489 12.1537 22.1397 12.2327 22.2803 12.3734C22.421 12.514 22.5 12.7048 22.5 12.9037C22.5 13.1026 22.421 13.2934 22.2803 13.434C22.1397 13.5747 21.9489 13.6537 21.75 13.6537L4.1025 13.6537L7.5 17.0512C7.5703 17.1209 7.62609 17.2039 7.66417 17.2953C7.70224 17.3867 7.72185 17.4847 7.72185 17.5837C7.72185 17.6827 7.70224 17.7808 7.66417 17.8721C7.62609 17.9635 7.5703 18.0465 7.5 18.1162C7.35948 18.2559 7.16939 18.3343 6.97125 18.3343C6.77311 18.3343 6.58302 18.2559 6.4425 18.1162L1.665 13.3387C1.53905 13.2122 1.46834 13.041 1.46834 12.8625C1.46834 12.684 1.53905 12.5127 1.665 12.3862L6.4425 7.61622C6.58302 7.47653 6.77311 7.39812 6.97125 7.39812C7.16939 7.39812 7.35948 7.47653 7.5 7.61622Z" fill="currentColor"/>
</svg>
