<svg width="31" height="31" viewBox="0 0 31 31" xmlns="http://www.w3.org/2000/svg">
<path d="M0.452637 14.9351C0.452637 8.24398 0.452637 4.89847 2.53128 2.81983C4.60993 0.74118 7.95543 0.74118 14.6465 0.74118H15.8293C22.5204 0.74118 25.8659 0.74118 27.9446 2.81983C30.0232 4.89847 30.0232 8.24398 30.0232 14.9351V16.1179C30.0232 22.809 30.0232 26.1545 27.9446 28.2331C25.8659 30.3118 22.5204 30.3118 15.8293 30.3118H14.6465C7.95543 30.3118 4.60993 30.3118 2.53128 28.2331C0.452637 26.1545 0.452637 22.809 0.452637 16.1179V14.9351Z" fill="currentColor"/>
<path d="M16.1868 22.0444C9.44716 22.0444 5.60305 17.4239 5.44287 9.7356H8.81885C8.92974 15.3787 11.4185 17.7689 13.3899 18.2618V9.7356H16.5689V14.6024C18.5156 14.393 20.5606 12.1752 21.2506 9.7356H24.4295C23.8997 12.7419 21.6819 14.9597 20.1048 15.8715C21.6819 16.6108 24.2079 18.5452 25.1689 22.0444H21.6696C20.918 19.7034 19.0454 17.8922 16.5689 17.6457V22.0444H16.1868Z" fill="var(--color2)"/>
</svg>
