<svg width="32" height="33" viewBox="0 0 32 33" xmlns="http://www.w3.org/2000/svg">
<path d="M29.5091 8.16021C28.7192 6.70547 27.8615 6.4382 26.1162 6.33632C24.3722 6.21378 19.9871 6.16293 16.1885 6.16293C12.3822 6.16293 7.99529 6.21378 6.2531 6.33425C4.5114 6.4382 3.65202 6.70371 2.85502 8.16021C2.04111 9.61312 1.62256 12.1154 1.62256 16.5208V16.536C1.62256 20.9221 2.04111 23.4432 2.85502 24.8809C3.65202 26.3357 4.50939 26.5995 6.25164 26.7218C7.99529 26.8275 12.3822 26.8898 16.1885 26.8898C19.9871 26.8898 24.3722 26.8275 26.1178 26.7238C27.8636 26.6016 28.7206 26.3374 29.5108 24.8829C30.3316 23.4452 30.7469 20.9242 30.7469 16.5375V16.5225C30.747 12.1154 30.3317 9.61312 29.5091 8.16021Z" fill="currentColor"/>
<path d="M12.5444 22.179V10.8734L21.6456 16.5262L12.5444 22.179Z" fill="var(--color2)"/>
</svg>
