<svg width="120" height="120" viewBox="0 0 120 120" fill="none" xmlns="http://www.w3.org/2000/svg">
<path fill-rule="evenodd" clip-rule="evenodd" d="M14.098 55.9232L68.269 56.0228L68.2344 97.6092L14.0555 97.4698L14.098 55.9232ZM30.7672 64.2575L39.0761 64.2966C39.1182 66.4 38.8589 76.5833 39.2748 77.6408C39.9236 79.2906 42.5419 78.8644 44.6855 78.8628C46.9673 78.861 49.2705 78.8342 51.5745 78.8918L51.5637 89.27L30.7466 89.2552L30.7672 64.2575ZM43.3595 68.0839C44.225 68.8416 48.5393 73.7567 48.9174 74.702L43.2855 74.657L43.3595 68.0839ZM26.672 91.9787C27.2289 94.027 30.6178 93.4506 33.1145 93.4454L48.9189 93.4463C51.0562 93.4492 54.7411 94.0019 55.4992 92.3616C55.9521 91.3815 55.8764 78.9194 55.772 77.0016C55.6941 75.5705 55.037 75.1183 54.3996 74.3599L45.3849 63.9052C40.8591 59.0142 44.0676 60.1184 33.3967 60.0882C31.2352 60.0822 27.6582 59.5545 26.8437 61.1488C26.5073 61.8073 26.2563 90.4503 26.672 91.9787ZM87.1555 62.2089L95.2853 62.2135C95.3832 71.0692 96.1971 68.7472 92.5218 71.8015C90.9066 73.1439 90.239 72.097 89.0036 71.084C87.4991 69.8503 87.0002 70.2603 87.0035 67.7248C87.0055 66.1519 86.842 63.6478 87.1555 62.2089ZM85.1329 57.9633C84.5357 56.0379 84.9417 39.5095 84.9355 36.0987C84.9223 28.8399 84.8507 21.5186 84.9508 14.2489L97.4576 14.3297L97.3169 57.9706L85.1329 57.9633ZM30.9766 30.905L80.6294 30.8942C81.0844 33.0623 80.7623 51.3584 80.757 56.1365C80.7558 57.2202 80.6328 59.401 80.802 60.3615C81.0788 61.9336 82.156 61.578 82.8463 62.6276C82.8442 64.1407 82.6683 70.1992 82.9902 71.1916C83.3185 72.2035 86.6953 74.5984 87.7422 75.4479C89.8997 77.1986 92.1602 77.4233 94.3704 75.6248C95.7703 74.4858 98.0167 72.5006 99.423 71.6679L99.5136 62.3453C101.021 61.4952 101.563 61.7697 101.639 59.5346C101.805 54.6542 101.32 48.0377 101.694 43.4547L105.77 43.4738L105.795 80.799L72.4754 80.9167C71.9688 75.9394 72.4795 61.5132 72.4177 54.7196C72.383 50.8938 69.9298 51.7459 66.4167 51.7352C54.5449 51.699 42.6285 51.8654 30.7641 51.7226L30.7605 43.441L73.4722 43.4299C76.0882 43.4355 77.173 43.8576 78.5021 42.3319C78.9335 39.6759 77.897 39.2556 75.4572 39.2495C60.9528 39.2131 44.9029 39.5652 30.8173 39.229C30.7208 37.4846 30.524 32.3238 30.9766 30.905ZM80.684 26.6594C77.9408 26.9646 73.8209 26.7363 70.9322 26.7313C67.6403 26.7254 64.3465 26.7248 61.0545 26.7297C57.3208 26.7352 55.3889 26.9858 53.2665 24.695C51.4619 22.7473 51.0325 19.6918 52.556 17.1556C53.6124 15.3969 56.2133 13.5999 59.5468 14.4775C62.6174 15.2859 62.8777 17.243 64.7078 19.1783C69.6017 24.3535 73.2915 21.7039 80.7457 22.6478L80.684 26.6594ZM26.5321 29.0432C26.4797 32.5677 26.7859 50.0189 26.4489 51.7241C22.8652 52.0132 18.1838 51.7805 14.4877 51.7674C12.4689 51.7602 10.4397 51.4545 9.99989 53.3519L9.90877 95.3654C9.91605 101.55 9.0307 101.803 15.3345 101.8C23.008 101.797 31.4866 101.459 39.0838 101.838L39.0791 105.877C34.9228 106.116 22.5601 105.142 21.5889 106.95C20.813 110.649 23.7449 110.106 26.6233 110.105L59.0801 110.066C61.5606 109.676 61.5781 106.443 59.2301 105.987C55.5472 105.272 47.6607 106.276 43.2731 105.852L43.2973 101.863C50.0969 101.279 59.3484 101.804 66.4167 101.8C72.4264 101.797 72.4095 102.362 72.4107 96.2121C72.4113 93.6309 72.0956 87.2488 72.527 85.119C77.8994 84.763 94.7083 85.0904 101.412 85.0793C109.667 85.0655 109.955 86.8528 109.942 78.7143C109.934 73.917 109.935 69.1182 109.94 64.321C109.945 58.5797 110.317 24.5274 109.933 20.5579C109.688 18.0281 106.888 17.7706 106.028 19.5295C105.52 20.5678 105.762 24.7297 105.765 26.221C105.635 26.6966 100.959 28.9142 105.709 31.0186L105.676 39.2523L101.675 39.2244C101.457 35.0299 102.482 12.36 101.065 10.7684C99.8062 9.35448 89.6263 10.0732 87.0189 10.0678C78.9104 10.0512 80.9605 10.4311 80.7356 18.2717C78.7496 18.5726 75.3261 18.3841 73.1849 18.3823C67.074 18.3773 67.6336 14.7998 64.1277 12.1376C59.2205 8.4116 52.1165 9.86872 48.8872 15.179C46.2381 19.5353 47.5665 22.9822 49.3392 26.7289L30.7718 26.6033C30.5957 23.9538 31.7713 16.811 27.7907 18.6198C26.2055 19.3402 26.5605 21.4236 26.566 23.3986C26.5711 25.2867 26.56 27.1562 26.5321 29.0432Z" fill="black"/>
</svg>
