<svg width="120" height="120" viewBox="0 0 120 120" fill="none" xmlns="http://www.w3.org/2000/svg">
<path fill-rule="evenodd" clip-rule="evenodd" d="M66.22 81.7879L66.2439 91.2272L53.74 91.2736C53.6698 88.1572 53.2242 89.0119 59.0982 85.7361C61.1435 84.5955 64.3022 82.4399 66.22 81.7879ZM87.1682 66.0184C87.9448 69.8124 94.0628 68.7969 93.2503 64.6464C92.5403 61.0192 86.2916 61.736 87.1682 66.0184ZM12.0979 59.5272C12.5267 63.3497 18.9571 62.8936 18.1991 58.4045C17.5966 54.8371 11.6151 55.2232 12.0979 59.5272ZM22.5113 47.1095C23.1154 50.7884 29.3073 50.2535 28.6631 45.9986C28.0701 42.0827 21.8245 42.9269 22.5113 47.1095ZM91.3041 47.1095C91.9023 50.9621 98.0801 50.1866 97.4591 46.0405C96.8845 42.2036 90.6351 42.8 91.3041 47.1095ZM107.733 60.0917C109.116 56.3962 103.543 54.1902 101.969 57.7408C100.202 61.728 106.244 64.0728 107.733 60.0917ZM32.6371 66.7133C34.3174 62.6368 28.5727 60.5169 26.9343 64.0028C25.0723 67.9641 31.2645 70.0436 32.6371 66.7133ZM10.0725 107.169C9.78938 110.109 11.4107 110.118 13.9815 110.109L106.269 110.111C108.772 110.117 110.165 109.958 109.888 107.174C108.375 105.488 107.619 105.923 104.857 105.925L21.3194 105.929C19.1576 105.92 16.9902 105.923 14.8283 105.93C12.0973 105.939 11.6014 105.496 10.0725 107.169ZM53.8095 83.9514L53.7759 76.2268C56.4661 74.8735 64.7051 69.721 66.2322 69.3033L66.1925 76.7447L53.8095 83.9514ZM53.7185 62.2336L66.2563 62.257L66.147 64.3677L53.772 71.5089L53.7204 65.7361L53.7185 62.2336ZM39.2603 24.6902L80.8083 24.7048L80.7053 41.2915C76.7256 41.6342 64.7856 41.3485 59.4194 41.3448C57.3355 41.3433 54.2338 40.8065 53.7946 42.9292C53.2221 45.6962 56.2371 45.4744 58.2905 45.477C60.6423 45.48 62.9942 45.4776 65.346 45.4752C69.9796 45.4703 74.7687 45.3645 79.3843 45.4966C79.1723 46.5227 73.8787 57.0614 73.1769 57.9857L46.7973 57.9836C46.1131 57.103 40.7935 46.507 40.5834 45.4966C44.0035 45.4012 50.6127 46.1653 51.508 44.388C51.8939 40.8337 49.7143 41.3452 46.7194 41.3448C44.3789 41.3444 41.5383 41.4912 39.1604 41.2951L39.2603 24.6902ZM54.2952 13.5691C55.5112 14.821 62.0924 14.2156 64.2171 14.2219C67.4647 14.2314 71.3096 14.0289 74.5767 14.273L74.5182 20.5044L45.3784 20.4378L45.4889 14.2716C48.7637 13.9972 51.9947 15.3265 51.5004 11.1823C49.8127 9.63693 49.3961 10.0678 46.7194 10.0744L12.8443 10.0656C10.7375 10.1012 9.88346 10.8626 10.0791 13.0092C11.1134 14.1758 11.0882 14.2163 13.1333 14.2285C19.5269 14.2667 37.6235 13.8808 41.2217 14.2912L41.1811 20.4121C38.7265 20.8416 35.6165 19.7055 35.0475 22.0976C34.8401 22.9699 34.6368 43.3196 35.4228 44.8552L43.3339 60.6504C44.5592 62.9311 46.7331 62.0784 49.5389 62.2145L49.5006 91.0921C44.2599 90.8897 39.4384 86.0951 37.8232 81.404C35.1003 73.4959 42.8473 74.6589 15.9572 74.7079C13.0984 74.7131 11.722 74.1399 10.0485 75.888C10.0667 76.6323 9.89938 78.0829 11.0805 78.6987C14.8083 79.1946 31.2391 78.1577 32.8237 79.0598C33.8476 79.9779 33.1219 86.9196 41.4403 92.4654C46.81 96.0452 52.6359 95.586 59.9838 95.5841C67.8169 95.582 72.9706 96.1966 78.6932 92.3493C81.9434 90.1644 84.5747 86.9913 85.9294 83.1981C86.3287 82.0801 86.5056 79.9306 87.1424 79.0552C88.8009 78.1336 105.104 79.2018 108.887 78.6987C109.801 77.7098 110.082 77.6457 109.867 75.885C108.269 74.1288 106.582 74.7126 103.728 74.708C101.377 74.7043 99.0241 74.7016 96.6727 74.7072C94.0474 74.7134 84.3482 74.0435 83.3168 75.5274C82.4443 76.7829 83.4399 81.4984 79.4952 86.087C77.7946 88.0652 74.4917 90.9396 70.4219 91.0921L70.549 62.2145C72.9184 62.098 75.4502 62.8426 76.5468 60.8418L83.6872 46.5389C85.0945 43.7144 84.9983 44.401 84.9945 40.6184C84.9922 38.267 84.9833 35.9141 84.99 33.5628C85.0325 18.7498 86.1842 20.6798 78.7354 20.4151L78.8199 14.2944C82.9653 13.7727 90.4707 14.2271 94.9793 14.2249C97.7076 14.2236 100.436 14.2224 103.164 14.2248C104.474 14.226 105.825 14.2529 107.129 14.2322C109.006 14.2024 108.944 14.0611 109.888 13.0092C110.288 8.88653 105.544 10.0662 102.035 10.0738C97.1475 10.0843 56.2247 9.82309 55.0058 10.2512C53.8727 10.6492 53.1495 12.3894 54.2952 13.5691Z" fill="black"/>
</svg>
