<svg width="120" height="120" viewBox="0 0 120 120" fill="none" xmlns="http://www.w3.org/2000/svg">
<path fill-rule="evenodd" clip-rule="evenodd" d="M45.4082 64.2423L32.9553 64.214L32.9327 77.8056L39.0956 82.3408C41.1471 81.3413 43.3836 78.9342 45.3851 77.8542L45.4082 64.2423ZM101.913 51.6666C106.63 51.786 105.976 52.3677 105.88 47.5795L101.718 47.5524L101.913 51.6666ZM108.626 43.4928C110.496 44.0865 110.046 46.1979 110.04 48.4272C110.022 55.9432 110.745 55.8448 104.896 55.8328C97.1659 55.817 97.5422 56.457 97.5551 50.6851C97.5578 49.4601 97.4051 45.5245 97.7162 44.6157C98.2983 42.915 100.589 43.3315 102.638 43.3376C104.296 43.3424 107.241 43.0532 108.626 43.4928ZM18.2835 101.691L14.1663 101.887C14.1405 103.013 13.925 104.903 14.3954 105.626C15.1167 106.092 17.0079 105.882 18.2575 105.856L18.2835 101.691ZM22.4576 108.258C22.1663 110.347 20.1339 110.031 17.9721 110.017C10.6115 109.972 9.9889 111.021 10.0049 105.436C10.0093 103.907 9.82793 100.561 10.0741 99.2476C10.4735 97.1157 12.2943 97.5177 14.5845 97.5204C22.4063 97.5293 22.5215 96.6771 22.492 102.049C22.4827 103.751 22.6734 106.712 22.4576 108.258ZM105.828 101.712L101.74 101.738L101.745 105.826L105.862 105.82L105.828 101.712ZM97.7547 108.823C97.3495 107.922 97.5503 104.193 97.5512 102.896C97.5554 96.8012 97.2455 97.5169 104.614 97.5203C106.567 97.5212 109.096 97.1071 109.778 98.5725C110.269 99.627 110.039 103.223 110.038 104.589C110.036 106.383 110.477 108.985 108.927 109.745C107.741 110.326 104.414 110.018 102.921 110.017C100.756 110.014 98.4909 110.459 97.7547 108.823ZM14.1511 12.8672L14.1583 26.5216L39.985 26.643C42.5495 26.643 47.4382 25.7348 47.5048 28.692C47.5735 31.7332 42.8072 30.8112 39.7028 30.8126L21.4984 30.8145C22.1203 33.8444 27.4245 41.9621 21.3052 41.0576C19.3505 39.0617 18.4754 33.7444 16.8428 30.9287C8.92162 30.3816 9.98914 32.9266 10.0087 17.665C10.0087 16.0384 9.67258 12.0344 10.3794 10.9124C11.4735 9.17533 14.1488 9.66733 14.1511 12.8672ZM62.0651 101.711L57.9551 101.728L57.9562 105.836L62.106 105.812L62.0651 101.711ZM18.2752 74.6264L14.1992 74.6328L14.2012 78.743L18.3182 78.7023L18.2752 74.6264ZM105.828 74.6139L101.735 74.6465L101.754 78.7129L105.857 78.7267L105.828 74.6139ZM100.09 70.1583C97.7434 64.0193 90.2277 59.0033 83.6563 56.1352C74.77 52.2568 66.7663 52.2925 65.2491 51.6808C63.3417 50.9117 63.4187 47.7232 66.4982 47.7302C74.0203 47.7472 84.7913 51.7711 90.184 54.6768C96.1515 57.8924 102.212 63.3097 104.691 70.3631C110.745 70.9283 110.026 69.6908 110.038 76.6494C110.049 82.8939 110.868 82.6709 104.896 82.9585C103.606 84.5163 103.513 87.4628 98.8045 92.2892C96.6144 94.534 93.3698 96.9348 90.0402 98.7668C80.6583 103.929 75.6454 103.766 66.3455 105.548C65.9146 110.979 65.9013 110.021 60.0227 110.015C54.1598 110.01 54.1312 110.992 53.7 105.55C44.7003 103.898 38.5939 103.664 29.8089 98.6658C21.745 94.0774 18.9115 90.8135 15.0872 82.9403C8.96882 82.8 10.0195 82.4686 10.0076 76.3672C9.99594 70.3795 9.37818 70.4181 15.4317 70.431C22.0382 70.4452 22.9134 68.2025 22.5024 80.3361C22.4015 83.3172 21.4637 82.1606 19.7705 83.1405C21.7968 88.3306 28.0411 93.1636 33.2656 95.7809C37.3912 97.8477 48.1312 101.626 53.7395 101.165C53.8726 96.472 55.459 97.5278 60.0227 97.5248C64.59 97.5216 66.1653 96.4824 66.3075 101.165C71.734 101.662 82.718 97.8043 86.771 95.7704C91.8984 93.1975 98.2742 88.3077 100.107 83.1405C98.8634 82.5037 97.8466 82.7854 97.5955 81.134C97.4293 80.0406 97.5512 77.8515 97.554 76.6494C97.5567 75.4701 97.4216 73.2239 97.6022 72.1717C97.8246 70.876 98.3932 70.7964 99.2712 70.4782L100.09 70.1583ZM20.4692 51.6106C24.3632 51.7989 46.9685 51.2451 48.386 51.8808C50.1404 52.6676 50.0934 55.4742 47.6098 55.7964L26.6987 55.857L26.6902 59.9955L51.6518 59.9862C51.9307 51.0392 50.2703 51.6732 57.9148 51.6485L57.8819 47.5222L20.4619 47.5607L20.4692 51.6106ZM68.3695 17.1006C68.3695 35.4269 68.9001 29.4119 61.4339 30.972L56.8211 43.2652C62.6575 43.5339 62.1163 42.3 62.1123 52.6605C62.1107 56.6721 60.1765 55.6755 55.9131 55.8756C55.703 66.3024 56.1364 63.6347 49.6069 64.2453L49.5836 75.5205C49.5836 80.4255 49.8811 79.5752 46.7145 81.9649C45.3214 83.0163 42.6548 85.2242 41.3218 85.8656C41.1402 89.9864 42.3958 95.4268 39.1402 95.3596C36.0898 95.2964 37.1021 90.024 37.1021 87.0916C37.1021 85.406 34.1546 83.8477 31.9227 82.1716C27.8166 79.0876 28.7407 79.3051 28.7547 70.7228L28.7343 64.1936C26.577 64.1236 23.4884 64.7359 22.7015 62.8983C22.1695 61.6562 22.6111 57.594 22.4083 55.8743C15.1825 55.7143 16.2753 56.1115 16.2753 48.7094C16.2753 42.5533 15.5349 43.2824 26.7206 43.3381L52.3286 43.3217L56.9821 30.8995C54.4716 30.6857 50.1659 31.7135 49.6632 29.1429C48.9986 25.7444 54.3988 26.6492 56.9183 26.643L64.126 26.613L64.1954 16.8184C64.1954 14.4413 63.3236 9.78189 66.4915 10.0314C69.1859 10.2436 68.3695 14.6771 68.3695 17.1006Z" fill="black"/>
</svg>
