<svg width="120" height="120" viewBox="0 0 120 120" fill="none" xmlns="http://www.w3.org/2000/svg">
<path fill-rule="evenodd" clip-rule="evenodd" d="M41.5039 104.806C42.6658 103.443 45.2985 101.461 46.0057 99.9974L35.1474 93.6235C34.7951 99.403 34.964 98.6425 37.3149 101.003C38.437 102.13 40.1036 104.261 41.5039 104.806ZM75.5343 74.5139C75.3723 73.438 74.8015 71.9819 74.0991 71.2911L72.8833 74.5111L75.5343 74.5139ZM76.4204 78.6677C65.0844 78.6672 66.1944 79.439 71.5138 66.6059C72.1478 65.0765 72.6084 63.2069 74.6827 63.5662C76.2213 63.8326 76.6743 65.956 77.207 67.3047C80.8031 76.4095 83.5164 78.69 76.4204 78.6677ZM47.5458 95.7271L47.5271 88.248L35.1442 81.1085L35.05 88.6372C35.9313 89.3595 46.5994 95.4937 47.5458 95.7271ZM47.5169 83.2415L47.5487 76.6911L36.0838 76.6393C36.9281 77.3914 46.5144 82.9919 47.5169 83.2415ZM62.112 45.3229L20.4891 45.3267L20.4903 61.9748C25.0798 62.1761 30.0243 62.0131 34.6515 62.009C37.0031 62.0068 39.3557 62.0188 41.7071 62.0137C44.059 62.0085 46.6891 61.5077 47.378 63.2867C48.3908 65.9016 45.7201 66.2071 43.6862 66.193C38.6506 66.1583 26.6791 65.9357 22.9226 66.24C23.5177 67.7963 26.6571 70.7079 27.5474 72.3876L55.0368 72.3685C56.1865 70.4175 58.785 68.0842 59.6494 66.2461C57.0301 66.0068 47.4796 67.4493 49.9254 63.0731C51.2592 60.6868 59.2286 62.8228 62.1518 61.7896L62.112 45.3229ZM68.421 14.0335C73.7718 14.1511 72.533 15.6647 72.533 21.5396C72.533 30.1379 73.3938 28.5744 60.1319 28.6726C59.8257 32.7889 59.9472 37.0399 60.1332 41.1642C68.0426 41.2444 66.3308 41.4351 66.3131 52.8663V62.4619C66.3115 65.4619 65.8722 65.4035 64.4492 67.1376L58.4311 74.6703C56.4113 77.2496 55.0944 76.5311 51.7411 76.6558L51.7043 98.0219C51.6965 102.773 48.5814 102.267 46.6596 105.734L66.2898 105.716C66.3274 104.115 66.6118 101.416 66.3103 99.9974C65.8986 99.0697 66.4862 99.8515 65.6438 99.2107C63.0703 97.2528 61.312 95.7741 62.0313 91.8548C62.2739 90.5327 63.3308 88.5743 63.8276 87.4165C65.2352 84.1363 66.8694 84.9163 71.3404 84.9212H79.8071C86.3159 84.9298 85.8008 84.9351 87.6757 90.9931C89.1584 95.7838 86.1305 98.4127 82.9874 99.7623L83.0538 105.75C90.5716 106.056 98.154 105.802 105.679 105.787C105.936 105.088 106.164 100.566 105.891 99.7152C105.317 98.909 104.903 99.1284 103.696 98.9535C102.779 98.8204 102.072 98.6792 101.254 98.297C97.4918 96.5387 96.0622 90.6598 94.4822 87.0019L74.3746 40.7884C73.567 38.7028 74.5864 37.0641 76.5795 37.4983C78.3191 37.8771 80.0586 43.3447 80.8072 45.0884L100.997 91.4994C101.724 93.215 102.027 94.3747 103.898 94.7851C111.085 96.3616 110.076 93.6051 110.066 105.924C110.061 111.426 107.396 109.956 99.2804 109.943H82.3471C77.6346 109.934 78.7982 107.285 78.7982 103.102C78.7982 98.7916 77.6935 96.3908 81.463 95.7324C85.0218 95.1108 83.7252 91.6999 82.4882 89.1531L67.7505 89.1095C63.0357 96.2361 69.2482 94.9668 70.2202 96.8802C71.0129 98.441 70.4887 102.23 70.4907 104.231C70.4975 111.046 70.5622 109.955 60.0515 109.938H21.6693C18.7144 109.933 17.5942 108.399 18.7436 106.677C19.7738 105.133 26.8567 105.757 29.2894 105.758L35.9125 105.745C35.2957 104.605 34.0964 103.667 33.2447 102.815C30.4266 99.9977 30.869 100.201 30.8696 96.3285L30.8368 76.7064C24.8325 75.5125 27.9018 79.3413 21.6446 71.5171C20.4879 70.0708 19.6087 68.9846 18.5075 67.5994C16.5282 65.1091 16.3054 65.0817 16.3041 61.333C16.303 58.3927 15.9207 43.3812 16.6067 42.1737C17.4642 40.6642 20.4445 41.2551 22.3819 41.1383C22.8193 37.0783 22.6452 32.7859 22.46 28.7059L13.7671 28.6626C8.8148 28.6547 10.0375 26.2035 10.0375 21.8219C10.0375 14.027 9.1248 14.6526 14.1358 14.006C14.3309 12.4478 13.9271 10.7608 15.3678 10.1345C19.0122 8.5501 18.7843 15.2103 18.171 16.9175C17.6202 18.4506 16.0319 17.9856 14.2269 18.3291L14.1898 24.2663C17.9824 24.9036 36.5565 24.4744 42.5538 24.4818C44.8223 24.4818 47.0967 24.0785 47.4908 26.1708C48.0917 29.3607 42.4589 28.6681 39.1671 28.6626L26.7993 28.6883C26.4156 32.7388 26.6194 36.9731 26.7267 41.0415C33.8983 41.3646 48.3123 41.2131 55.8456 41.0735L55.8081 28.6707C53.643 28.6427 49.9439 29.2836 49.6614 26.8445C49.3246 23.9378 53.1504 24.485 55.2538 24.4818L68.3454 24.4611L68.3441 18.2864C63.7986 18.1502 63.829 17.2012 64.226 12.2064C64.3442 10.7195 65.2801 9.52785 66.9974 10.0448C68.6035 10.5283 68.3787 12.3294 68.421 14.0335Z" fill="black"/>
</svg>
