<svg width="120" height="120" viewBox="0 0 120 120" fill="none" xmlns="http://www.w3.org/2000/svg">
<path fill-rule="evenodd" clip-rule="evenodd" d="M91.826 82.5715C96.1162 82.5715 97.9651 81.935 99.0281 83.2679C103.947 89.4356 109.818 102.291 109.088 109.664L68.7371 109.62C68.1517 103.037 75.4511 102.885 79.4083 102.892C84.6827 102.9 88.9226 103.571 91.9891 100.247C93.6751 98.4196 94.4715 95.7046 92.9383 93.0575C88.7573 85.8396 79.9711 92.7425 79.9711 86.5388C79.9711 84.2718 80.7947 82.5642 83.0771 82.5715H91.826ZM70.1087 49.0032C70.2541 49.8083 71.5591 52.3529 72.0871 52.8941L75.4367 51.4786L75.4635 59.9949L79.9518 59.9889C80.0087 57.8502 80.3416 48.6367 79.542 47.4488C77.7535 44.792 71.7062 47.6378 70.1087 49.0032ZM30.3372 93.8674L34.8031 93.8088L34.7526 62.2616L30.3183 62.3226L30.3372 93.8674ZM82.2684 19.6521C80.4696 7.01823 92.6756 9.03679 93.452 14.6181C95.2246 27.3611 83.0276 24.9844 82.2684 19.6521ZM85.9365 6.03279C79.3391 7.33407 77.3471 11.7336 77.752 19.3738C78.0593 25.1733 83.4032 29.3986 89.9899 28.2057C96.3735 27.0495 98.4778 22.2485 98.0318 14.8545C97.6902 9.19191 92.3879 4.76031 85.9365 6.03279ZM28.0818 19.6521C26.263 7.05383 38.4543 9.00647 39.2617 14.6101C41.0891 27.2931 28.8599 25.0424 28.0818 19.6521ZM31.7595 6.04087C25.0315 7.34207 23.1769 11.6807 23.5681 19.3856C24.0659 29.1875 37.5111 31.4136 42.3059 24.0377C44.0057 21.4227 44.0541 18.464 43.8426 14.8537C43.5095 9.16855 38.2159 4.79223 31.7595 6.04087ZM68.4968 43.1879C69.0651 41.9095 71.3857 39.1655 72.4347 38.0797C73.8573 36.6071 75.4643 35.5214 78.2995 35.2371C81.7222 34.8938 92.4771 34.935 95.5608 35.6949C101.177 37.0787 102.543 40.0454 102.535 46.4632C102.533 48.4822 102.759 53.3146 102.296 54.9444C101.766 56.8102 99.8285 58.9874 98.0587 59.4002L98.0286 46.4762L93.5179 46.4841L93.5873 69.0302L98.0275 68.9769L98.0721 64.2884C101.598 63.1442 103.489 61.7324 105.065 59.4186C107.223 56.2502 107.056 54.0428 107.065 49.5677C107.073 45.841 107.393 41.9373 106.03 38.737C101.965 29.1933 88.6433 30.2215 78.5527 30.7152C75.0042 30.8888 71.9126 32.2432 70.095 34.0493C68.7364 35.3993 65.6097 38.8037 64.79 40.5365C65.5807 41.4378 67.1444 42.8354 68.4968 43.1879ZM21.2415 61.4871C19.6883 61.2485 18.5591 59.8597 17.8813 58.8803C16.7791 57.2877 16.7643 56.3209 16.7697 54.0868C16.7772 50.9808 16.4627 45.3347 17.2129 42.6981C19.4907 34.6923 26.9883 35.1599 33.1239 35.158C42.3839 35.1551 46.1983 35.1444 52.014 39.9884C54.0676 41.699 62.9707 50.1362 63.6716 51.8626C57.0625 53.634 58.6131 52.717 50.2275 46.5736C49.5717 46.0931 47.989 44.7146 47.3132 44.4454C46.3838 44.0751 43.6103 44.053 42.7395 44.5299C40.7542 45.6173 41.5773 50.9349 41.5729 53.5188C41.5504 66.7261 41.1467 80.7066 41.5968 93.8615L46.105 93.8556L46.1626 49.287C51.6944 51.9039 56.0439 61.2474 66.5595 55.3505C72.1579 52.211 68.7723 50.4828 65.7301 47.1608C60.7446 41.7166 53.5071 33.7521 46.2284 31.6588C41.4827 30.2939 32.5721 30.4645 27.1879 30.6993C21.1427 30.963 16.5981 34.0369 14.3675 37.8726C11.7762 42.3289 11.954 49.819 12.2582 55.7837C12.5492 61.4912 16.7247 65.0121 21.2508 66.5128L21.2769 93.8635L25.7869 93.8556L25.7263 44.2209L21.2595 44.2683L21.2415 61.4871ZM14.6729 84.1906C13.9808 85.8211 12.628 87.8733 11.7529 89.7071C8.87403 95.7403 6.8881 102.2 6.30394 109.105C5.99018 112.814 5.7661 114.211 9.68931 114.204L108.76 114.197C111.827 114.204 113.873 114.563 113.827 111.101C113.552 90.1018 98.6796 70.6879 79.1484 63.1055C68.9479 59.1455 61.5687 59.142 50.1713 60.4744L51.0281 64.7108C52.224 64.861 55.9283 64.2396 57.5709 64.1357C67.4294 63.5126 78.0165 66.4428 86.1238 71.6403C88.2241 72.9869 93.2357 76.5432 94.0515 78.0318C86.1437 78.5817 79.3575 75.9106 76.2167 82.4901C74.8564 85.3396 75.1371 89.438 76.9761 91.5075C79.242 94.0573 81.4806 93.7962 85.6325 93.8664C90.4332 93.9477 90.0462 98.0958 86.1908 98.4005C79.2644 98.9479 72.6735 96.735 67.2503 101.757C65.0675 103.778 64.5049 105.712 64.1151 109.662L32.6304 109.642C32.1011 104.106 34.0619 105.187 38.7683 105.18C42.2254 105.176 45.78 105.268 49.2235 105.184C52.6352 105.101 54.6834 103.324 55.9593 101.472C58.2839 98.0982 56.6811 95.1305 57.9202 92.9914C59.2731 90.6557 62.5715 92.5125 65.0815 89.4234C67.142 86.8875 68.7863 76.4794 61.0657 75.837C58.5934 75.6313 53.139 75.6334 50.6522 75.869L50.6555 80.2621C53.9708 80.5525 58.8682 79.9205 61.7316 80.5459C62.2611 81.9309 62.8203 86.3019 60.9379 86.9557C58.0632 87.9539 57.7019 86.7221 55.2425 89.1841C51.1928 93.2382 54.6132 98.6593 50.6221 100.356C49.0531 101.023 37.6088 100.568 34.8046 100.654C27.9235 100.864 28.2647 106.224 27.9648 109.662L10.8912 109.615C10.7724 106.056 12.5251 99.9623 13.6042 96.9415C15.4764 91.7001 17.8122 88.45 18.5096 86.5388C17.5828 85.6776 16.1214 84.639 14.6729 84.1906Z" fill="black"/>
</svg>
