<svg width="120" height="120" viewBox="0 0 120 120" fill="none" xmlns="http://www.w3.org/2000/svg">
<path fill-rule="evenodd" clip-rule="evenodd" d="M62.1798 14.1715L74.6095 14.2186L74.5488 51.5705C72.5881 52.6796 72.561 51.7275 72.4656 55.8594L64.1932 55.8509C64.1172 52.3324 64.4758 52.8937 62.0907 51.5154L62.1798 14.1715ZM54.1091 70.4794C54.9223 64.536 50.5901 65.6811 50.1754 68.5119L46.3042 97.3783C45.997 99.467 45.7644 101.068 47.4915 101.605C49.2112 102.138 50.0456 100.867 50.264 99.3964L54.1091 70.4794ZM58.0617 100.395C58.4029 101.422 59.9371 102.201 61.2084 101.326C62.3552 100.537 62.0976 98.9727 62.0918 97.2905C62.0753 92.475 62.3678 69.0604 61.9632 67.7004C61.6156 66.5323 60.0327 65.7911 58.7547 66.6845C57.6424 67.4621 57.9151 69.1058 57.9154 70.7617C57.9164 75.3663 57.6826 99.2538 58.0617 100.395ZM81.2492 97.4953C81.7158 99.1642 81.8049 100.945 83.1408 101.53C84.8545 102.281 86.1904 100.878 85.9547 99.05L78.3403 70.4865C77.9404 68.9345 77.676 66.9852 76.452 66.4748C74.7533 65.7667 73.2905 67.2025 73.6492 69.0683L78.6896 87.912C79.5968 91.2049 80.3624 94.3238 81.2492 97.4953ZM46.1742 69.6328C46.6196 67.8482 46.1477 66.0002 43.9937 66.3504C42.4238 66.6056 42.1748 68.416 41.7702 70.0549C41.0056 73.1522 40.0338 76.3306 39.2857 79.3355C37.6839 85.7696 35.7547 91.9165 34.2163 98.3083C33.7335 100.314 34.4204 102.092 36.4668 101.667C38.0731 101.333 38.1374 99.7688 38.6285 97.9482L46.1742 69.6328ZM38.5914 69.0683C39.0974 67.3113 37.3504 65.5068 35.5504 66.6284C34.6066 67.2164 33.8725 69.6916 33.3776 70.9475C32.1083 74.1684 30.9437 77.0433 29.6796 80.2152C28.4165 83.3849 27.2287 86.3325 25.9565 89.511L22.2428 98.8075C21.6598 101.097 23.7327 102.492 25.3612 101.318C26.432 100.547 30.4815 89.3932 31.1896 87.673L38.5914 69.0683ZM98.084 99.2981C97.9568 98.1897 94.9564 91.2639 94.3566 89.7719C93.0497 86.5213 91.9596 83.6968 90.6466 80.4937C89.9684 78.8393 85.7766 67.5943 84.8458 66.7957C83.409 65.563 81.2937 66.7518 81.5316 68.786C81.5596 69.0255 94.0139 100.684 94.7155 101.246C96.1528 102.396 98.3129 101.291 98.084 99.2981ZM101.709 47.3372C101.709 58.6961 101.91 72.0177 101.681 83.137C100.504 81.8304 96.1263 72.9305 94.5405 70.0797C93.048 67.3965 93.3568 67.7555 93.3576 63.9883L93.4036 30.8804L105.621 30.8434C106.049 32.0563 105.844 34.0308 105.844 35.4839C105.844 37.1076 103.84 39.5572 103.045 40.7088C101.219 43.352 101.709 43.6031 101.709 47.3372ZM18.3276 83.1415C18.0794 73.8523 18.3038 64.2789 18.2957 54.9572C18.2928 51.7021 18.968 43.6912 17.5287 41.5484C16.6345 40.2175 15.524 38.7406 14.6804 37.3412C13.9844 36.1868 13.8427 32.398 14.3886 30.8416L26.5195 30.8819C27.0684 33.5245 26.6385 42.5972 26.6477 45.9261C26.6546 48.3957 26.9935 66.9335 26.3579 68.4538L18.3276 83.1415ZM57.8356 41.2208C55.5352 41.5079 51.4276 41.3196 48.9876 41.251C46.2174 41.1731 44.2762 40.399 42.459 38.9229C38.3337 35.572 38.5044 31.5673 38.5231 24.7595C38.5316 21.6072 38.5534 19.5036 41.3996 18.5766C44.0712 17.7064 46.2546 19.5518 46.7637 21.5584C47.1683 23.1527 46.6304 25.558 49.1544 28.2699C50.1292 29.3172 53.233 31.3724 55.76 30.7552C56.8496 30.4891 57.7367 29.2176 56.9938 27.759C56.4172 26.627 55.0976 26.8938 53.8032 26.4365C50.668 25.3288 51.6324 23.5705 50.774 20.4476C49.6231 16.2607 44.9344 12.5024 39.391 14.8832C34.2496 17.0914 34.3595 21.1503 34.3431 27.8639C34.3356 30.9204 34.2909 33.1781 35.3068 35.8959C35.7047 36.9604 36.2892 38.0628 36.8368 38.8882C37.3472 39.6576 38.2954 40.4624 38.6672 41.2862L30.8668 41.2011C30.0853 32.9267 32.5584 26.8946 28.4097 26.6765C26.7345 26.5885 24.7428 26.6784 23.0312 26.6792C11.5716 26.6844 9.97748 25.2339 9.98556 30.4034C9.9942 35.9674 9.34052 36.7733 11.4866 39.9682C15.3713 45.7512 14.1434 43.6442 14.1619 53.8283L14.1603 87.1305C14.1707 92.3255 13.9721 91.8016 11.8185 95.6645C9.54356 99.7452 9.98221 99.5257 9.98981 104.911C9.99805 110.772 10.3155 110.06 15.9756 110.058L104.311 110.057C110.221 110.068 110.031 110.252 110.019 104.346C110.007 98.7434 110.274 99.4483 107.979 95.2941C105.743 91.2472 105.853 92.0389 105.843 86.566L105.844 53.2639C105.839 50.4804 105.214 44.9232 106.48 43.0186C110.787 36.5349 110.029 39.1502 110.023 29.8357C110.019 25.1924 106.825 26.7054 96.6912 26.6848C85.3732 26.6617 90.601 26.4512 89.1348 41.198C86.6312 41.5994 80.8258 40.0483 80.8595 43.3852C80.8932 46.7168 86.7016 45.0287 89.1516 45.5514C89.5688 51.3249 89.1997 58.6152 89.1957 64.5528C89.1924 69.5103 89.0747 68.8088 91.0595 72.425L101.069 91.2135C105.492 99.7507 105.939 98.0653 105.823 105.874L14.1792 105.859C14.088 101.344 13.7086 100.961 15.6023 97.4688L28.9444 72.4246C30.9128 68.8954 30.8184 69.4305 30.8101 64.5528C30.7998 58.5208 30.481 51.4552 30.847 45.4273L57.8909 45.5193L58.0511 54.724C58.4236 55.0915 58.5894 55.2902 59.0789 55.586C60.2265 56.2794 59.5186 55.3684 60 56.3683C59.9988 61.1521 61.8801 59.888 66.2355 60.0782C66.3996 64.1562 66.0939 67.656 66.6344 71.73C67.1001 75.2408 67.5617 78.8615 67.9292 82.337C68.3004 85.8489 68.7182 89.4317 69.179 92.8612C69.7604 97.1888 69.385 101.762 72.1187 101.712C75.5301 101.649 73.6572 95.2273 73.341 92.7399C72.1601 83.4518 70.1963 68.5971 70.4628 60.0933C71.68 60.0031 74.4548 60.1974 75.3693 59.861C76.8712 59.3085 76.6068 57.9364 76.6921 56.086C77.6953 55.4174 77.6426 55.6472 78.7464 54.7539L78.6092 11.1338C76.8484 9.50141 75.7986 10.0116 72.9845 10.0175L59.7189 10.0658C57.4955 10.4528 57.9136 12.7655 57.9161 14.8816C57.921 19.0017 58.1464 38.8712 57.8356 41.2208Z" fill="black"/>
</svg>
