<svg width="292" height="300" viewBox="0 0 292 300" fill="none" xmlns="http://www.w3.org/2000/svg">
<path d="M208.333 104.167C208.333 161.696 161.696 208.333 104.167 208.333C46.637 208.333 0 161.696 0 104.167C0 46.637 46.637 0 104.167 0C161.696 0 208.333 46.637 208.333 104.167Z" fill="#FFAA00"/>
<path fill-rule="evenodd" clip-rule="evenodd" d="M99.6997 136.416C90.5809 137.713 84.3133 142.523 84.011 152.289C83.0879 182.119 84.8969 215.975 83.9661 247.096L72.1886 247.14C71.9702 255.962 71.3066 255.838 74.8253 259.277C89.4944 273.612 80.9569 270.839 107.712 270.839L241.062 270.839C250.478 270.85 247.462 270.741 259.138 259.284C262.656 255.832 261.985 255.929 261.769 247.13L249.984 247.129L249.939 219.536L242.147 219.526L242.011 247.02L178.871 247.139L178.863 255.03L251.808 255.07C250.805 257.051 248.068 259.253 246.457 260.928C243.603 263.896 241.975 262.908 236.617 262.912L120.553 262.91C112.816 262.909 105.078 262.904 97.3403 262.91C92.5824 262.914 90.2808 263.807 87.7506 261.171C86.0826 259.434 83.2095 257.027 82.1569 255.164L155.035 255.06L155.129 247.172L91.9735 247.129C91.2889 221.255 91.958 190.868 91.9382 164.162C91.9319 155.769 90.163 144.433 99.6923 144.514C100.138 150.962 98.8521 166.732 100.323 171.533C103.017 180.325 109.368 179.705 119.477 179.973L119.58 207.612L129.419 207.631C133.157 202.224 154.74 179.312 155.037 176.426C155.316 173.714 151.985 169.464 147.469 174.283L134.229 189.69C132.513 191.78 129.497 195.616 127.617 197.098L127.476 172.176C106.033 170.821 107.749 177.683 107.711 154.284L107.713 97.9802C107.702 88.4514 108.376 89.1217 117.59 89.1187L192.686 89.0984C200.61 89.0867 198.621 94.7734 198.611 101.932C198.603 108.187 198.607 114.444 198.614 120.699C198.627 133.211 198.607 145.723 198.614 158.235C198.618 164.541 200.506 171.854 193.681 172.111C189.605 172.264 178.474 170.867 176.076 173.257C174.153 175.173 175.026 178.397 176.924 179.419C178.777 180.417 183.383 179.938 185.746 179.94C199.56 179.958 206.456 180.634 206.465 163.174C206.471 152.219 207.276 93.0746 205.735 88.8874C204.164 84.6172 200.419 81.4271 194.658 81.2007C182.523 80.724 169.351 81.1907 157.101 81.1907C144.589 81.1907 132.077 81.1909 119.565 81.1907C104.084 81.1906 99.7614 82.286 99.7789 98.9684C99.7914 110.979 100.369 124.597 99.6997 136.416ZM163.14 255.047L170.877 254.942L170.869 247.158L163.05 247.252L163.14 255.047ZM216.397 239.133L226.133 239.21L226.254 211.607C233.636 211.42 241.107 211.633 248.481 211.583C255.581 211.534 260.142 208.325 261.471 202.437C262.335 198.612 261.803 144.698 261.803 136.01C261.803 128.709 262.917 121.47 258.849 116.742C254.739 111.964 248.259 112.817 240.568 112.82C233.16 112.822 225.748 112.848 218.341 112.817C214.798 112.802 211.248 112.526 210.595 115.919C209.795 120.066 213.334 120.704 216.843 120.69L249.953 120.7C253.916 121.135 253.907 124.185 253.879 128.103L253.874 194.783C253.881 205.038 253.482 203.656 240.568 203.644C233.532 203.638 225.306 203.262 218.411 203.741L218.305 228.482C215.906 227.376 204.838 213.288 202.015 210.122C200.124 208.001 197.961 205.733 196.612 203.7C168.718 202.586 170.89 209.975 170.903 185.399L170.907 130.577C170.906 127.219 170.312 123.056 172.656 121.445C175.981 119.159 190.214 122.18 193.343 119.913C195.711 118.197 195.252 113.781 191.993 112.993C190.107 112.537 183.651 112.819 181.301 112.82C172.958 112.822 168.128 112.752 164.762 118.487C161.969 123.244 163.052 132.225 163.05 138.479C163.046 149.512 162.349 200.002 163.781 203.877C167.229 213.209 177.805 211.69 188.721 211.561C194.457 211.493 193.399 212.31 196.16 215.488L216.397 239.133Z" fill="black"/>
</svg>
