<svg width="249" height="44" viewBox="0 0 249 44" fill="none" xmlns="http://www.w3.org/2000/svg">
<path d="M176.441 26.2437V0.679993H203.769V5.03958H182.652V10.7368H194.98V15.0963H182.652V21.4378H204.037V26.2437H176.441Z" fill="white"/>
<path d="M154.807 5.23796V26.2437H148.596V5.23796H136.329V0.679993H167.126V5.23796H154.807Z" fill="white"/>
<path d="M90.1616 26.2437V0.679993H95.1821L107.751 16.1287L120.078 0.679993H125.047V26.2437H119.302V10.4315C119.302 9.97741 119.319 9.5975 119.354 9.29995C119.397 8.90367 119.449 8.37545 119.5 7.71482C119.328 8.02876 119.164 8.33408 119.017 8.62344C118.871 8.92054 118.741 9.15984 118.621 9.35002C118.344 9.83685 118.12 10.1835 117.947 10.3901L107.906 23.1722H106.664L96.6314 10.3405C96.3125 9.9442 96.0016 9.48195 95.6998 8.94508C95.3723 8.46644 95.1479 8.05378 95.0271 7.71482C95.079 8.25169 95.1303 8.7467 95.1821 9.20122V10.4315V26.2437H90.1616Z" fill="white"/>
<path d="M50.1014 21.4378H70.5979V5.23796H50.1014V21.4378ZM43.8901 6.72392C43.8901 4.41219 44.3388 2.82703 45.2273 1.97623C46.1846 1.1095 47.9448 0.679993 50.5154 0.679993H70.1749C72.7631 0.679993 74.5057 1.1095 75.4026 1.97623C76.3433 2.81839 76.8087 4.404 76.8087 6.72392V20.1994C76.8087 22.5279 76.3433 24.113 75.4026 24.9638C74.4971 25.8142 72.7546 26.2437 70.1749 26.2437H50.5154C47.9533 26.2437 46.1936 25.8142 45.2273 24.9638C44.3388 24.1049 43.8901 22.5197 43.8901 20.1994V6.72392Z" fill="white"/>
<path d="M0 11.1281V0.679993H6.26304V6.86539L0 11.1281Z" fill="white"/>
<path d="M0 26.2437V15.8844L10.7949 8.11248V8.06881L21.0575 0.679993H30.0717L12.3707 12.7268L32.2459 26.2437H22.2477L6.26304 14.9976V26.2437H0Z" fill="white"/>
<path d="M215.932 11.1281V0.679993H222.195V6.86539L215.932 11.1281Z" fill="white"/>
<path d="M215.932 26.2437V15.8844L226.727 8.11248V8.06881L236.989 0.679993H246.004L228.302 12.7268L248.178 26.2437H238.179L222.195 14.9976V26.2437H215.932Z" fill="white"/>
<path d="M0 43.6984V38.1736H1.35327V40.4758L4.55087 38.1736H6.49929L2.67329 40.777L6.96892 43.6984H4.80803L1.35327 41.2679V43.6984H0ZM11.8411 39.4798C11.8411 38.9803 11.9381 38.6377 12.1301 38.4539C12.3369 38.2664 12.7172 38.1736 13.2729 38.1736H17.5219C18.0809 38.1736 18.4578 38.2664 18.6513 38.4539C18.8547 38.6358 18.9555 38.9784 18.9555 39.4798V42.3921C18.9555 42.8953 18.8547 43.2379 18.6513 43.4217C18.4559 43.6056 18.079 43.6984 17.5219 43.6984H13.2729C12.7191 43.6984 12.3388 43.6056 12.1301 43.4217C11.9381 43.2361 11.8411 42.8935 11.8411 42.3921V39.4798ZM13.1835 42.6597H17.6132V39.1586H13.1835V42.6597ZM23.9598 43.6984V38.1736H25.0446L27.7612 41.5122L30.4235 38.1736H31.4992V43.6984H30.2576V40.281C30.2576 40.1828 30.261 40.1009 30.2686 40.0367C30.2781 39.9507 30.289 39.8365 30.3004 39.6941C30.2648 39.7583 30.2315 39.8206 30.1996 39.8811C30.1697 39.9421 30.1397 39.9972 30.1122 40.0472C30.0432 40.165 29.9947 40.2401 29.9648 40.2719L27.7963 43.0345H27.5263L25.3578 40.2615C25.3003 40.1919 25.2328 40.09 25.1568 39.9599C25.0821 39.8457 25.0336 39.7564 25.0113 39.6941C25.0222 39.8101 25.0336 39.9171 25.0446 40.0153V40.281V43.6984H23.9598ZM37.747 43.6984V39.2123H41.573V43.6984H42.9173V38.1736H41.4832H36.4066V39.4798V43.6984H37.747ZM48.0913 39.4798C48.0913 38.9803 48.1883 38.6377 48.3803 38.4539C48.5871 38.2664 48.9674 38.1736 49.523 38.1736H53.7721C54.3311 38.1736 54.708 38.2664 54.9015 38.4539C55.1049 38.6358 55.2057 38.9784 55.2057 39.4798V42.3921C55.2057 42.8953 55.1049 43.2379 54.9015 43.4217C54.7061 43.6056 54.3292 43.6984 53.7721 43.6984H49.523C48.9693 43.6984 48.589 43.6056 48.3803 43.4217C48.1883 43.2361 48.0913 42.8935 48.0913 42.3921V39.4798ZM49.4337 42.6597H53.8634V39.1586H49.4337V42.6597ZM61.6399 39.1586H65.2643V40.3365H63.284V41.4176H65.2643V42.6597H61.6399V41.4694L60.2994 41.7374V42.3903C60.2994 42.8935 60.3964 43.2361 60.5884 43.4217C60.7971 43.6056 61.1774 43.6984 61.7311 43.6984H65.4093C65.6797 43.6984 65.9483 43.6196 66.2131 43.4608C66.4759 43.3039 66.6081 43.0364 66.6081 42.6597V41.6428C66.6081 41.4071 66.5544 41.2411 66.446 41.1428C66.3381 41.0431 66.1755 40.9394 65.9578 40.827C66.1385 40.7556 66.2915 40.6578 66.418 40.5345C66.5449 40.4112 66.6081 40.2669 66.6081 40.1009V39.4798C66.6081 38.9821 66.5111 38.6395 66.3158 38.452C66.1123 38.2664 65.7321 38.1736 65.1745 38.1736H61.7311C61.1755 38.1736 60.7952 38.2664 60.5884 38.452C60.3964 38.6377 60.2994 38.9803 60.2994 39.4798V40.0044L61.6399 40.2078V39.1586ZM78.4944 43.6984V38.1736H77.577L73.5143 41.4303C73.3446 41.555 73.2238 41.655 73.1454 41.7283C73.0594 41.8102 72.9624 41.9121 72.8564 42.0282C72.864 41.9158 72.8712 41.7961 72.8807 41.6642C72.8883 41.5336 72.8954 41.4376 72.9011 41.3748C72.9087 41.2893 72.9125 41.1892 72.9125 41.075V38.1736H71.7042V43.6984H72.6216L76.8611 40.281C76.9823 40.1809 77.0717 40.1027 77.1292 40.0472C77.2191 39.9617 77.2899 39.8902 77.3422 39.8334C77.3384 39.8957 77.3308 39.9794 77.3198 40.0831C77.3084 40.1882 77.3008 40.2651 77.297 40.3165C77.2899 40.4221 77.2861 40.554 77.2861 40.711V43.6984H78.4944ZM87.0914 39.1586V43.6984H85.749V39.1586H83.098V38.1736H89.7518V39.1586H87.0914ZM94.0327 43.6984V38.1736H95.375V40.3152H99.5699V38.1736H100.924V43.6984H99.5699V41.3216H95.375V43.6984H94.0327ZM110.449 42.7456H107.427V41.2788H110.449C110.68 41.2788 110.841 41.3107 110.93 41.3748C111.01 41.4426 111.051 41.5568 111.051 41.7174V42.3084C111.051 42.469 111.01 42.5832 110.93 42.651C110.843 42.7133 110.682 42.7456 110.449 42.7456ZM106.109 38.1736V43.6984H111.04C111.495 43.6984 111.831 43.6165 112.049 43.4522C112.25 43.2807 112.353 43.0041 112.353 42.6278V41.3962C112.353 41.0272 112.25 40.7556 112.049 40.5827C111.835 40.413 111.499 40.3274 111.04 40.3274H107.427V38.1736H106.109ZM113.212 43.7093V38.1736H114.599V43.7093H113.212ZM119.617 43.6984V38.1736H125.523V39.1158H120.959V40.347H123.623V41.2893H120.959V42.6597H125.581V43.6984H119.617ZM143.248 39.1586V43.6984H141.905V39.1586H139.254V38.1736H145.908V39.1586H143.248ZM150.033 43.6984V38.1736H155.939V39.1158H151.375V40.347H154.039V41.2893H151.375V42.6597H155.997V43.6984H150.033ZM160.611 43.6984L163.35 40.863L160.565 38.1736H162.342L164.189 40.0472L165.943 38.1736H167.489L164.972 40.711L168.082 43.6984H166.258L164.144 41.5568L162.198 43.6984H160.611ZM172.728 43.6984V38.1736H174.071V40.3152H178.265V38.1736H179.619V43.6984H178.265V41.3216H174.071V43.6984H172.728ZM184.637 39.4798C184.637 38.9803 184.734 38.6377 184.926 38.4539C185.133 38.2664 185.513 38.1736 186.069 38.1736H190.318C190.877 38.1736 191.253 38.2664 191.447 38.4539C191.65 38.6358 191.751 38.9784 191.751 39.4798V42.3921C191.751 42.8953 191.65 43.2379 191.447 43.4217C191.252 43.6056 190.875 43.6984 190.318 43.6984H186.069C185.515 43.6984 185.134 43.6056 184.926 43.4217C184.734 43.2361 184.637 42.8935 184.637 42.3921V39.4798ZM185.979 42.6597H190.409V39.1586H185.979V42.6597ZM200.348 38.1736L203.679 43.6984H202.147L199.809 39.7046L197.585 43.6984H196.241L199.419 38.1736H200.348ZM207.89 39.4798C207.89 38.9803 207.987 38.6377 208.179 38.4539C208.386 38.2664 208.766 38.1736 209.322 38.1736H213.571C214.13 38.1736 214.507 38.2664 214.7 38.4539C214.903 38.6358 215.004 38.9784 215.004 39.4798V42.3921C215.004 42.8953 214.903 43.2379 214.7 43.4217C214.505 43.6056 214.128 43.6984 213.571 43.6984H209.322C208.768 43.6984 208.387 43.6056 208.179 43.4217C207.987 43.2361 207.89 42.8935 207.89 42.3921V39.4798ZM209.232 42.6597H213.662V39.1586H209.232V42.6597ZM220.187 43.6984V38.1736H225.456L224.828 39.1373H221.53V43.6984H220.187ZM236.604 43.6984V38.1736H235.686L231.623 41.4303C231.454 41.555 231.333 41.655 231.255 41.7283C231.169 41.8102 231.072 41.9121 230.966 42.0282C230.973 41.9158 230.98 41.7961 230.99 41.6642C230.997 41.5336 231.005 41.4376 231.01 41.3748C231.018 41.2893 231.022 41.1892 231.022 41.075V38.1736H229.813V43.6984H230.731L234.97 40.281C235.091 40.1809 235.181 40.1027 235.238 40.0472C235.328 39.9617 235.399 39.8902 235.451 39.8334C235.448 39.8957 235.44 39.9794 235.429 40.0831C235.418 40.1882 235.41 40.2651 235.406 40.3165C235.399 40.4221 235.395 40.554 235.395 40.711V43.6984H236.604ZM248.4 43.6984V38.1736H247.483L243.42 41.4303C243.25 41.555 243.129 41.655 243.051 41.7283C242.965 41.8102 242.868 41.9121 242.762 42.0282C242.77 41.9158 242.777 41.7961 242.786 41.6642C242.794 41.5336 242.801 41.4376 242.807 41.3748C242.814 41.2893 242.818 41.1892 242.818 41.075V38.1736H241.61V43.6984H242.527L246.767 40.281C246.888 40.1809 246.977 40.1027 247.035 40.0472C247.125 39.9617 247.195 39.8902 247.248 39.8334C247.244 39.8957 247.236 39.9794 247.225 40.0831C247.214 40.1882 247.206 40.2651 247.203 40.3165C247.196 40.4221 247.192 40.554 247.192 40.711V43.6984H248.4Z" fill="white"/>
</svg>
