<svg width="0" height="0" class="hidden">
  <symbol xmlns="http://www.w3.org/2000/svg" viewBox="0 0 40 39" id="ic_close">
    <path fill-rule="evenodd" clip-rule="evenodd" d="M29.2985 11.5245C29.689 11.134 29.689 10.5008 29.2985 10.1103C28.908 9.71975 28.2748 9.71975 27.8843 10.1103L19.505 18.4895L11.6208 10.6052C11.2302 10.2147 10.5971 10.2147 10.2065 10.6052C9.81602 10.9957 9.81602 11.6289 10.2065 12.0194L18.0908 19.9037L10.2066 27.7879C9.8161 28.1785 9.8161 28.8116 10.2066 29.2022C10.5971 29.5927 11.2303 29.5927 11.6208 29.2022L19.505 21.3179L27.8842 29.6971C28.2747 30.0876 28.9079 30.0876 29.2984 29.6971C29.689 29.3066 29.689 28.6734 29.2984 28.2829L20.9193 19.9037L29.2985 11.5245Z" fill="currentColor"></path>
  </symbol>
  <symbol xmlns="http://www.w3.org/2000/svg" viewBox="0 0 25 25" id="ic_download">
    <path d="M21.5 15.5V19.5C21.5 20.0304 21.2893 20.5391 20.9142 20.9142C20.5391 21.2893 20.0304 21.5 19.5 21.5H5.5C4.96957 21.5 4.46086 21.2893 4.08579 20.9142C3.71071 20.5391 3.5 20.0304 3.5 19.5V15.5" stroke="currentColor" stroke-width="2" stroke-linecap="round" stroke-linejoin="round" fill="none"></path>
    <path d="M7.5 10.5L12.5 15.5L17.5 10.5" stroke="currentColor" stroke-width="2" stroke-linecap="round" stroke-linejoin="round" fill="none"></path>
    <path d="M12.5 15.5V3.5" stroke="currentColor" stroke-width="2" stroke-linecap="round" stroke-linejoin="round" fill="none"></path>
  </symbol>
  <symbol xmlns="http://www.w3.org/2000/svg" viewBox="0 0 32 33" id="ic_facebook">
    <path d="M22.9821 12.16H17.5214V8.39148C17.5214 7.35126 18.3367 6.50712 19.3418 6.50712H21.162V1.79651H17.5214C14.5053 1.79651 12.0607 4.32694 12.0607 7.44924V12.16H8.41992V16.8706H12.0607V31.9446H17.5214V16.8706H21.162L22.9821 12.16Z" fill="currentColor"></path>
  </symbol>
  <symbol xmlns="http://www.w3.org/2000/svg" viewBox="0 0 24 25" id="ic_feedback">
    <path d="M21 15.5C21 16.0304 20.7893 16.5391 20.4142 16.9142C20.0391 17.2893 19.5304 17.5 19 17.5H7L3 21.5V5.5C3 4.96957 3.21071 4.46086 3.58579 4.08579C3.96086 3.71071 4.46957 3.5 5 3.5H19C19.5304 3.5 20.0391 3.71071 20.4142 4.08579C20.7893 4.46086 21 4.96957 21 5.5V15.5Z" stroke="currentColor" stroke-width="2" stroke-linecap="round" stroke-linejoin="round" fill="none"></path>
  </symbol>
  <symbol xmlns="http://www.w3.org/2000/svg" viewBox="0 0 32 33" id="ic_instagram">
    <path d="M20.9455 1.78317H10.2728C5.36191 1.78317 1.40381 5.8699 1.40381 10.9163V21.8843C1.40381 26.931 5.36191 31.0807 10.2728 31.0807H20.9455C25.8565 31.0807 29.9053 26.931 29.9053 21.8843V10.9163C29.9053 5.8699 25.8565 1.78317 20.9455 1.78317ZM27.2199 21.8843C27.2199 25.4118 24.3782 28.3085 20.9455 28.3085H10.2728C6.8399 28.3085 4.02814 25.4118 4.02814 21.8843V10.9163C4.02814 7.38896 6.8399 4.49241 10.2728 4.49241H20.9455C24.3782 4.49241 27.2199 7.38896 27.2199 10.9163V21.8843Z" fill="currentColor"></path>
    <path d="M15.6092 9.08844C11.6799 9.08844 8.49414 12.3623 8.49414 16.4006C8.49414 20.4383 11.6799 23.712 15.6092 23.712C19.5385 23.712 22.7242 20.4383 22.7242 16.4006C22.7242 12.3623 19.5385 9.08844 15.6092 9.08844ZM15.6092 20.9703C13.1579 20.9703 11.1625 18.9194 11.1625 16.4006C11.1625 13.8793 13.1579 11.8305 15.6092 11.8305C18.0603 11.8305 20.056 13.8794 20.056 16.4006C20.056 18.9194 18.0603 20.9703 15.6092 20.9703Z" fill="currentColor"></path>
    <path d="M23.2579 7.56567C22.7342 7.56567 22.3096 8.00193 22.3096 8.53993C22.3096 9.078 22.7342 9.51444 23.2579 9.51444C23.7811 9.51444 24.2058 9.078 24.2058 8.53993C24.2058 8.00193 23.7811 7.56567 23.2579 7.56567Z" fill="currentColor"></path>
  </symbol>
  <symbol xmlns="http://www.w3.org/2000/svg" viewBox="0 0 50 48" id="ic_menu">
    <path d="M3.3335 23.8372L46.6668 23.8372" stroke="currentColor" stroke-width="3" stroke-linecap="square" stroke-linejoin="round" fill="none"></path>
    <path d="M3.3335 4.76746L46.6668 4.76746" stroke="currentColor" stroke-width="3" stroke-linecap="square" stroke-linejoin="round" fill="none"></path>
    <path d="M3.3335 42.907L46.6668 42.907" stroke="currentColor" stroke-width="3" stroke-linecap="square" stroke-linejoin="round" fill="none"></path>
  </symbol>
  <symbol xmlns="http://www.w3.org/2000/svg" viewBox="0 0 24 25" id="ic_slider_arrow">
    <path d="M7.5 7.61622C7.63969 7.75674 7.71809 7.94683 7.71809 8.14497C7.71809 8.34311 7.63969 8.5332 7.5 8.67372L4.08 12.1537L21.75 12.1537C21.9489 12.1537 22.1397 12.2327 22.2803 12.3734C22.421 12.514 22.5 12.7048 22.5 12.9037C22.5 13.1026 22.421 13.2934 22.2803 13.434C22.1397 13.5747 21.9489 13.6537 21.75 13.6537L4.1025 13.6537L7.5 17.0512C7.5703 17.1209 7.62609 17.2039 7.66417 17.2953C7.70224 17.3867 7.72185 17.4847 7.72185 17.5837C7.72185 17.6827 7.70224 17.7808 7.66417 17.8721C7.62609 17.9635 7.5703 18.0465 7.5 18.1162C7.35948 18.2559 7.16939 18.3343 6.97125 18.3343C6.77311 18.3343 6.58302 18.2559 6.4425 18.1162L1.665 13.3387C1.53905 13.2122 1.46834 13.041 1.46834 12.8625C1.46834 12.684 1.53905 12.5127 1.665 12.3862L6.4425 7.61622C6.58302 7.47653 6.77311 7.39812 6.97125 7.39812C7.16939 7.39812 7.35948 7.47653 7.5 7.61622Z" fill="currentColor"></path>
  </symbol>
  <symbol xmlns="http://www.w3.org/2000/svg" viewBox="0 0 101 100" id="ic_video_play">
    <path d="M50.5002 91.6667C73.512 91.6667 92.1668 73.0119 92.1668 50C92.1668 26.9882 73.512 8.33337 50.5002 8.33337C27.4883 8.33337 8.8335 26.9882 8.8335 50C8.8335 73.0119 27.4883 91.6667 50.5002 91.6667Z" stroke="currentColor" stroke-width="2" stroke-linecap="round" stroke-linejoin="round" fill="none"></path>
    <path d="M42.1665 33.3334L67.1665 50L42.1665 66.6667V33.3334Z" stroke="currentColor" stroke-width="2" stroke-linecap="round" stroke-linejoin="round" fill="none"></path>
  </symbol>
  <symbol xmlns="http://www.w3.org/2000/svg" viewBox="0 0 31 31" id="ic_vkontakte">
    <path d="M0.452637 14.9351C0.452637 8.24398 0.452637 4.89847 2.53128 2.81983C4.60993 0.74118 7.95543 0.74118 14.6465 0.74118H15.8293C22.5204 0.74118 25.8659 0.74118 27.9446 2.81983C30.0232 4.89847 30.0232 8.24398 30.0232 14.9351V16.1179C30.0232 22.809 30.0232 26.1545 27.9446 28.2331C25.8659 30.3118 22.5204 30.3118 15.8293 30.3118H14.6465C7.95543 30.3118 4.60993 30.3118 2.53128 28.2331C0.452637 26.1545 0.452637 22.809 0.452637 16.1179V14.9351Z" fill="currentColor"></path>
    <path d="M16.1868 22.0444C9.44716 22.0444 5.60305 17.4239 5.44287 9.7356H8.81885C8.92974 15.3787 11.4185 17.7689 13.3899 18.2618V9.7356H16.5689V14.6024C18.5156 14.393 20.5606 12.1752 21.2506 9.7356H24.4295C23.8997 12.7419 21.6819 14.9597 20.1048 15.8715C21.6819 16.6108 24.2079 18.5452 25.1689 22.0444H21.6696C20.918 19.7034 19.0454 17.8922 16.5689 17.6457V22.0444H16.1868Z" fill="var(--color2)"></path>
  </symbol>
  <symbol xmlns="http://www.w3.org/2000/svg" viewBox="0 0 32 33" id="ic_youtube">
    <path d="M29.5091 8.16021C28.7192 6.70547 27.8615 6.4382 26.1162 6.33632C24.3722 6.21378 19.9871 6.16293 16.1885 6.16293C12.3822 6.16293 7.99529 6.21378 6.2531 6.33425C4.5114 6.4382 3.65202 6.70371 2.85502 8.16021C2.04111 9.61312 1.62256 12.1154 1.62256 16.5208V16.536C1.62256 20.9221 2.04111 23.4432 2.85502 24.8809C3.65202 26.3357 4.50939 26.5995 6.25164 26.7218C7.99529 26.8275 12.3822 26.8898 16.1885 26.8898C19.9871 26.8898 24.3722 26.8275 26.1178 26.7238C27.8636 26.6016 28.7206 26.3374 29.5108 24.8829C30.3316 23.4452 30.7469 20.9242 30.7469 16.5375V16.5225C30.747 12.1154 30.3317 9.61312 29.5091 8.16021Z" fill="currentColor"></path>
    <path d="M12.5444 22.179V10.8734L21.6456 16.5262L12.5444 22.179Z" fill="var(--color2)"></path>
  </symbol>
</svg>